<?xml version="1.0" encoding="iso-8859-1"?>
<!-- Uploaded to: SVG Repo, www.svgrepo.com, Generator: SVG Repo Mixer Tools -->
<svg height="800px" width="800px" version="1.1" id="Layer_1" xmlns="http://www.w3.org/2000/svg" xmlns:xlink="http://www.w3.org/1999/xlink" 
	 viewBox="0 0 392.577 392.577" xml:space="preserve">
<path style="fill:#194F82;" d="M362.99,23.511C358.788,8.19,342.045-4.287,321.552,1.402l-3.232,1.034
	c-11.507,3.491-19.717,12.735-22.497,23.725L99.103,85.959c-15.063,4.59-24.501,19.006-23.402,34.069L26.247,135.22
	c-14.481,4.008-27.927,20.945-22.109,41.309l1.034,3.232c5.172,17.455,23.402,27.539,41.438,22.109l49.519-15.063
	c5.818,10.214,16.549,16.743,28.768,16.743c3.232,0,6.465-0.453,9.632-1.487l44.347-13.446v10.408
	c0,18.554,12.541,34.263,29.543,39.046v16.679h-36.525c-6.077,0-11.055,4.913-11.055,11.055c0,6.077,4.913,11.055,11.055,11.055
	h23.725l-79.903,96.97c-3.879,4.719-3.232,11.636,1.487,15.515s11.636,3.232,15.515-1.487l75.572-91.669v85.333
	c0,6.077,4.913,11.055,11.055,11.055c6.141,0,11.055-4.913,11.055-11.055v-84.558l75.572,91.539
	c4.073,4.59,11.184,5.236,15.515,1.487c4.719-3.879,5.43-10.796,1.487-15.515l-80.55-97.616h24.501
	c6.077,0,11.055-4.978,11.055-11.055c0-6.077-4.913-11.055-11.055-11.055H230.4v-16.679c17.002-4.848,29.543-20.493,29.543-39.046
	v-35.168l71.24-21.657c10.796,9.18,22.562,10.02,31.935,7.176l3.232-1.034c17.325-4.784,27.281-23.661,22.109-41.438L362.99,23.511z
	 M40.081,180.731c-5.689,1.681-12.024-1.681-13.834-7.37l-1.034-3.232c-1.228-7.758,1.875-11.83,7.37-13.834l48.679-14.804
	l7.434,24.436L40.081,180.731z M237.835,199.091c0,10.214-8.275,18.489-18.489,18.489c-10.214,0-18.489-8.275-18.489-18.489v-17.131
	l36.913-11.313v28.444H237.835z M128.065,180.925c-5.689,1.681-12.024-1.681-13.834-7.37l-15.968-52.622
	c-1.745-5.818,1.552-12.024,7.37-13.834l72.533-22.109l6.012,19.782c1.164,4.655,7.37,9.438,13.834,7.37
	c5.883-1.745,9.115-7.952,7.37-13.834l-6.012-19.782l15.903-4.848l12.218,40.275c1.034,4.655,7.887,9.503,13.834,7.37
	c5.883-1.745,9.115-7.952,7.37-13.834l-12.347-40.275l61.349-18.489l0.517,1.875l21.85,71.952L128.065,180.925z M359.822,127.333
	l-3.232,1.034c-5.689,2.133-12.283-2.651-13.834-7.37L317.414,37.41c-1.745-5.818,1.552-12.024,7.37-13.77l3.232-1.034
	c6.4-1.939,12.218,2.263,13.834,7.37l25.406,83.523C369.002,118.864,365.899,125.329,359.822,127.333z"/>
<path style="fill:#FFC10D;" d="M88.76,165.862l-7.434-24.436l-48.614,14.869c-5.495,2.004-8.598,6.077-7.37,13.834l1.034,3.232
	c1.681,5.624,8.016,9.115,13.834,7.37L88.76,165.862z"/>
<path style="fill:#56ACE0;" d="M320.194,122.485l-21.851-71.952l-0.517-1.875l-61.349,18.683l12.218,40.275
	c1.745,5.883-1.552,12.024-7.37,13.834c-5.883,2.133-12.8-2.78-13.834-7.37l-12.218-40.275l-15.903,4.848l6.012,19.782
	c1.745,5.883-1.552,12.024-7.37,13.834c-6.465,2.069-12.671-2.715-13.834-7.37l-6.012-19.782l-72.533,22.109
	c-5.818,1.745-9.115,7.952-7.37,13.834l15.968,52.622c1.681,5.624,8.145,9.115,13.834,7.37L320.194,122.485z"/>
<g>
	<path style="fill:#FFC10D;" d="M341.851,29.911c-1.552-5.172-7.37-9.244-13.834-7.37l-3.232,1.034
		c-5.818,1.745-9.115,7.952-7.37,13.77l25.406,83.523c1.487,4.719,8.016,9.568,13.834,7.37l3.232-1.034
		c6.012-2.004,9.051-8.404,7.37-13.77L341.851,29.911z"/>
	<path style="fill:#FFC10D;" d="M200.921,199.091c0,10.214,8.275,18.489,18.489,18.489c10.214,0,18.489-8.275,18.489-18.489v-28.444
		l-36.913,11.184v17.261H200.921z"/>
</g>
</svg>